<svg xmlns="http://www.w3.org/2000/svg" width="24" height="24" viewBox="0 0 24 24"><defs><style>.a{fill:#1e1e1e;}.b{fill:none;}</style></defs><g transform="translate(-16 -178)"><path class="a" d="M37,182v4.1a3.4,3.4,0,0,0-1-.1H20a3.4,3.4,0,0,0-1,.1V182a2.006,2.006,0,0,1,2-2H35A2.006,2.006,0,0,1,37,182Z"/><path class="a" d="M37,188.3a1.689,1.689,0,0,0-1-.3H20a1.689,1.689,0,0,0-1,.3,1.936,1.936,0,0,0-1,1.7v8a2.006,2.006,0,0,0,2,2H36a2.006,2.006,0,0,0,2-2v-8A1.936,1.936,0,0,0,37,188.3ZM28,197a3,3,0,1,1,3-3A2.946,2.946,0,0,1,28,197Z"/></g><rect class="b" width="24" height="24"/></svg>