<svg xmlns="http://www.w3.org/2000/svg" width="24" height="24" viewBox="0 0 24 24"><defs><style>.a{fill:none;}.b{fill:#1e1e1e;}</style></defs><rect class="a" width="24" height="24"/><path class="b" d="M21.8,14.6,19.6,13c0-.3.1-.7.1-1a3.4,3.4,0,0,0-.1-1l2.2-1.7c.2-.1.2-.4.1-.6L19.8,5.2c-.1-.2-.3-.2-.6-.2L16.7,6A9.5,9.5,0,0,0,15,5l-.4-2.6a.458.458,0,0,0-.5-.4H10a.675.675,0,0,0-.6.4L9.1,5.1A5.076,5.076,0,0,0,7.3,6L4.8,5c-.3,0-.5,0-.7.3l-2,3.4a.494.494,0,0,0,.1.7L4.4,11a6.7,6.7,0,0,0,0,2L2.2,14.7c-.2.1-.2.4-.1.6l2.1,3.5c.1.2.3.2.6.2l2.5-1A9.5,9.5,0,0,0,9,19l.4,2.6c0,.2.3.4.5.4H14c.2,0,.5-.2.5-.4l.4-2.6a9.5,9.5,0,0,0,1.7-1l2.6,1a.481.481,0,0,0,.6-.2l2.1-3.5A.494.494,0,0,0,21.8,14.6ZM12,16a4,4,0,1,1,4-4A4.012,4.012,0,0,1,12,16Z"/></svg>